<svg enable-background="new 0 0 256 256" id="Layer_1" version="1.1" viewBox="0 0 256 256" xml:space="preserve" xmlns="http://www.w3.org/2000/svg" xmlns:xlink="http://www.w3.org/1999/xlink">
<path d="M184.746,156.373c-1.639,0-3.275-0.625-4.525-1.875L128,102.278l-52.223,52.22c-2.497,2.5-6.55,2.5-9.05,0  c-2.5-2.498-2.5-6.551,0-9.05l56.749-56.747c1.2-1.2,2.828-1.875,4.525-1.875l0,0c1.697,0,3.325,0.675,4.525,1.875l56.745,56.747  c2.5,2.499,2.5,6.552,0,9.05C188.021,155.748,186.383,156.373,184.746,156.373z M256,128C256,57.42,198.58,0,128,0  C57.42,0,0,57.42,0,128c0,70.58,57.42,128,128,128C198.58,256,256,198.58,256,128z" fill="#db9900"/>
</svg>